<svg id="visual" viewBox="0 0 900 450" width="900" height="450" xmlns="http://www.w3.org/2000/svg" xmlns:xlink="http://www.w3.org/1999/xlink" version="1.1"><rect width="900" height="450" fill="#931F1F"></rect><g><g transform="translate(155 94)"><path d="M82.8 -25.6C94.6 9.2 82.5 53 54.7 72.5C27 92 -16.4 87.1 -43.3 66.1C-70.2 45 -80.7 7.7 -70.7 -24.7C-60.8 -57.1 -30.4 -84.6 2.6 -85.4C35.6 -86.3 71.1 -60.5 82.8 -25.6Z" stroke="#F7760E" fill="none" stroke-width="20"></path></g><g transform="translate(684 23)"><path d="M44.8 -13.9C51.2 5.3 45 29.4 29.4 40.8C13.8 52.2 -11.2 51 -27.5 38.9C-43.9 26.8 -51.6 3.7 -45.6 -14.9C-39.5 -33.5 -19.8 -47.7 -0.3 -47.6C19.2 -47.5 38.3 -33.1 44.8 -13.9Z" stroke="#F7760E" fill="none" stroke-width="20"></path></g><g transform="translate(123 355)"><path d="M47 -15.5C54.3 7.1 48.9 33.5 31.4 47.2C13.9 60.8 -15.8 61.7 -34.6 47.9C-53.5 34.1 -61.6 5.7 -54.1 -17.3C-46.5 -40.3 -23.2 -57.9 -1.7 -57.4C19.9 -56.9 39.8 -38.1 47 -15.5Z" stroke="#F7760E" fill="none" stroke-width="20"></path></g></g></svg>